<?xml version="1.0" standalone="no"?>
<!DOCTYPE svg PUBLIC "-//W3C//DTD SVG 1.1//EN" "http://www.w3.org/Graphics/SVG/1.1/DTD/svg11.dtd">
<svg width="40mm" height="15mm" viewBox="0 -15 40 15" xmlns="http://www.w3.org/2000/svg" version="1.1">
<title>OpenSCAD Model</title>
<path d="
M 32,-15 L 17,-15 L 17,-0 L 32,-0 z
M 24.3431,-5.50616 L 24.1871,-5.52461 L 24.0331,-5.55525 L 23.882,-5.59789 L 23.7346,-5.65224 L 23.592,-5.71797
 L 23.455,-5.79471 L 23.3244,-5.88196 L 23.2011,-5.97919 L 23.0858,-6.08578 L 22.9792,-6.2011 L 22.882,-6.32442
 L 22.7947,-6.455 L 22.718,-6.59201 L 22.6522,-6.73462 L 22.5979,-6.88196 L 22.5553,-7.0331 L 22.5246,-7.18712
 L 22.5062,-7.34308 L 22.5,-7.5 L 22.5062,-7.65691 L 22.5246,-7.81287 L 22.5553,-7.96689 L 22.5979,-8.11803
 L 22.6522,-8.26537 L 22.718,-8.40797 L 22.7947,-8.54498 L 22.882,-8.67557 L 22.9792,-8.79889 L 23.0858,-8.9142
 L 23.2011,-9.0208 L 23.3244,-9.11803 L 23.455,-9.20528 L 23.592,-9.28201 L 23.7346,-9.34775 L 23.882,-9.4021
 L 24.0331,-9.44473 L 24.1871,-9.47537 L 24.3431,-9.49382 L 24.5,-9.5 L 24.6569,-9.49382 L 24.8129,-9.47537
 L 24.9669,-9.44473 L 25.118,-9.4021 L 25.2654,-9.34775 L 25.408,-9.28201 L 25.545,-9.20528 L 25.6756,-9.11803
 L 25.7989,-9.0208 L 25.9142,-8.9142 L 26.0208,-8.79889 L 26.118,-8.67557 L 26.2053,-8.54498 L 26.282,-8.40797
 L 26.3477,-8.26537 L 26.4021,-8.11803 L 26.4447,-7.96689 L 26.4754,-7.81287 L 26.4938,-7.65691 L 26.5,-7.5
 L 26.4938,-7.34308 L 26.4754,-7.18712 L 26.4447,-7.0331 L 26.4021,-6.88196 L 26.3477,-6.73462 L 26.282,-6.59201
 L 26.2053,-6.455 L 26.118,-6.32442 L 26.0208,-6.2011 L 25.9142,-6.08578 L 25.7989,-5.97919 L 25.6756,-5.88196
 L 25.545,-5.79471 L 25.408,-5.71797 L 25.2654,-5.65224 L 25.118,-5.59789 L 24.9669,-5.55525 L 24.8129,-5.52461
 L 24.6569,-5.50616 L 24.5,-5.5 z
M 15,-15 L 0,-15 L 0,-0 L 15,-0 z
M 3.7,-3.7 L 3.7,-11.3 L 11.3,-11.3 L 11.3,-3.7 z
M 40,-6 L 34,-6 L 34,-0 L 40,-0 z
M 36.8431,-1.00616 L 36.6871,-1.02461 L 36.5331,-1.05525 L 36.382,-1.09789 L 36.2346,-1.15224 L 36.092,-1.21797
 L 35.955,-1.29471 L 35.8244,-1.38196 L 35.7011,-1.47919 L 35.5858,-1.58578 L 35.4792,-1.7011 L 35.382,-1.82442
 L 35.2947,-1.955 L 35.218,-2.09201 L 35.1522,-2.23462 L 35.0979,-2.38196 L 35.0553,-2.5331 L 35.0246,-2.68712
 L 35.0062,-2.84308 L 35,-3 L 35.0062,-3.15691 L 35.0246,-3.31287 L 35.0553,-3.46689 L 35.0979,-3.61803
 L 35.1522,-3.76537 L 35.218,-3.90797 L 35.2947,-4.04498 L 35.382,-4.17557 L 35.4792,-4.29889 L 35.5858,-4.4142
 L 35.7011,-4.5208 L 35.8244,-4.61803 L 35.955,-4.70528 L 36.092,-4.78201 L 36.2346,-4.84775 L 36.382,-4.9021
 L 36.5331,-4.94473 L 36.6871,-4.97537 L 36.8431,-4.99382 L 37,-5 L 37.1569,-4.99382 L 37.3129,-4.97537
 L 37.4669,-4.94473 L 37.618,-4.9021 L 37.7654,-4.84775 L 37.908,-4.78201 L 38.045,-4.70528 L 38.1756,-4.61803
 L 38.2989,-4.5208 L 38.4142,-4.4142 L 38.5208,-4.29889 L 38.618,-4.17557 L 38.7053,-4.04498 L 38.782,-3.90797
 L 38.8477,-3.76537 L 38.9021,-3.61803 L 38.9447,-3.46689 L 38.9754,-3.31287 L 38.9938,-3.15691 L 39,-3
 L 38.9938,-2.84308 L 38.9754,-2.68712 L 38.9447,-2.5331 L 38.9021,-2.38196 L 38.8477,-2.23462 L 38.782,-2.09201
 L 38.7053,-1.955 L 38.618,-1.82442 L 38.5208,-1.7011 L 38.4142,-1.58578 L 38.2989,-1.47919 L 38.1756,-1.38196
 L 38.045,-1.29471 L 37.908,-1.21797 L 37.7654,-1.15224 L 37.618,-1.09789 L 37.4669,-1.05525 L 37.3129,-1.02461
 L 37.1569,-1.00616 L 37,-1 z
" stroke="black" fill="lightgray" stroke-width="0.5"/>
</svg>
